<svg width="152" height="52" fill="none" xmlns="http://www.w3.org/2000/svg"><path d="M144 0H8a8 8 0 0 0-8 8v36a8 8 0 0 0 8 8h136a8 8 0 0 0 8-8V8a8 8 0 0 0-8-8Z" fill="#222"/><path d="M33.48 25.262c-.034-3.535 2.969-5.254 3.106-5.334-1.7-2.416-4.336-2.746-5.262-2.773-2.213-.227-4.36 1.291-5.488 1.291-1.15 0-2.886-1.269-4.758-1.232-2.408.037-4.66 1.396-5.896 3.505-2.55 4.303-.649 10.625 1.795 14.102 1.222 1.705 2.65 3.605 4.519 3.538 1.828-.072 2.511-1.135 4.718-1.135 2.187 0 2.828 1.135 4.734 1.092 1.963-.03 3.198-1.71 4.378-3.429 1.412-1.95 1.98-3.874 2.002-3.973-.045-.015-3.81-1.417-3.849-5.652Zm-3.602-10.394c.984-1.199 1.657-2.83 1.47-4.485-1.424.062-3.204.96-4.23 2.132-.906 1.034-1.716 2.727-1.507 4.32 1.599.115 3.24-.787 4.267-1.967ZM59.964 38.112h-2.556l-1.4-4.287h-4.865l-1.334 4.287h-2.488l4.822-14.594h2.978l4.843 14.594Zm-4.377-6.085-1.266-3.811c-.134-.39-.386-1.306-.755-2.75h-.046c-.148.621-.385 1.538-.71 2.75l-1.245 3.81h4.022Zm16.753.694c0 1.79-.498 3.204-1.496 4.243-.894.924-2.005 1.386-3.33 1.386-1.43 0-2.458-.497-3.082-1.492v5.521h-2.4V31.047c0-1.124-.03-2.276-.088-3.458h2.11l.133 1.668h.045c.8-1.257 2.015-1.886 3.644-1.886 1.274 0 2.337.49 3.188 1.472.85.984 1.276 2.276 1.276 3.878Zm-2.444.086c0-1.025-.236-1.87-.711-2.535-.519-.692-1.216-1.038-2.089-1.038-.592 0-1.13.193-1.61.573a2.651 2.651 0 0 0-.944 1.506c-.066.232-.103.47-.112.712v1.755c0 .765.241 1.41.723 1.94.481.526 1.107.79 1.877.79.903 0 1.607-.341 2.11-1.018.504-.679.756-1.573.756-2.685Zm14.864-.086c0 1.79-.498 3.204-1.497 4.243-.894.924-2.004 1.386-3.33 1.386-1.43 0-2.458-.497-3.083-1.492v5.521h-2.399V31.047c0-1.124-.03-2.276-.089-3.458h2.11l.134 1.668h.045c.8-1.257 2.013-1.886 3.644-1.886 1.273 0 2.336.49 3.19 1.472.847.984 1.275 2.276 1.275 3.878Zm-2.445.086c0-1.025-.237-1.87-.712-2.535-.52-.692-1.213-1.038-2.087-1.038-.592 0-1.13.193-1.612.573a2.649 2.649 0 0 0-.943 1.506c-.073.29-.113.525-.113.712v1.755c0 .765.242 1.41.722 1.94.481.525 1.107.79 1.879.79.904 0 1.608-.341 2.11-1.018.504-.679.756-1.573.756-2.685Zm16.331 1.211c0 1.243-.445 2.253-1.33 3.032-.975.852-2.336 1.278-4.08 1.278-1.611 0-2.903-.303-3.878-.909l.555-1.949c1.052.608 2.208.91 3.466.91.905 0 1.608-.2 2.11-.595.503-.397.757-.928.757-1.59 0-.593-.21-1.09-.623-1.495-.416-.403-1.102-.78-2.066-1.125-2.622-.953-3.934-2.347-3.934-4.18 0-1.198.463-2.178 1.388-2.945.925-.765 2.152-1.148 3.678-1.148 1.363 0 2.498.231 3.4.693l-.603 1.906c-.848-.448-1.806-.671-2.877-.671-.846 0-1.51.203-1.985.606-.4.36-.602.8-.602 1.323 0 .576.23 1.054.69 1.429.398.345 1.125.721 2.176 1.125 1.29.506 2.237 1.096 2.843 1.774.612.678.915 1.524.915 2.531Zm7.953-4.675h-2.645v5.11c0 1.3.466 1.947 1.4 1.947.429 0 .785-.035 1.066-.108l.066 1.775c-.472.172-1.094.259-1.865.259-.948 0-1.688-.282-2.223-.846-.532-.563-.8-1.508-.8-2.837V29.34h-1.575v-1.755h1.575v-1.927l2.356-.693v2.62h2.645v1.76Zm11.908 3.42c0 1.618-.475 2.946-1.423 3.985-.991 1.069-2.31 1.602-3.953 1.602-1.587 0-2.849-.512-3.79-1.535-.94-1.026-1.411-2.317-1.411-3.876 0-1.63.486-2.966 1.455-4.005.971-1.04 2.279-1.56 3.923-1.56 1.585 0 2.857.514 3.821 1.538.919.994 1.378 2.277 1.378 3.852Zm-2.487.055c0-.965-.213-1.791-.642-2.483-.504-.836-1.223-1.254-2.157-1.254-.961 0-1.698.418-2.199 1.254-.43.692-.644 1.533-.644 2.526 0 .965.214 1.794.644 2.484.518.836 1.241 1.254 2.179 1.254.917 0 1.636-.427 2.156-1.275.441-.708.663-1.54.663-2.506Zm10.288-3.173a4.255 4.255 0 0 0-.755-.065c-.845 0-1.497.31-1.957.932-.398.549-.598 1.242-.598 2.078v5.522h-2.399v-7.21a73.2 73.2 0 0 0-.069-3.312h2.089l.087 2.013h.066c.255-.692.653-1.25 1.201-1.668a2.949 2.949 0 0 1 1.733-.563c.222 0 .423.015.6.042l.002 2.23Zm10.73 2.707c.007.356-.023.711-.087 1.06h-7.197c.027 1.04.375 1.837 1.043 2.385.607.49 1.391.735 2.355.735 1.065 0 2.037-.165 2.912-.497l.376 1.622c-1.022.434-2.228.65-3.62.65-1.675 0-2.989-.48-3.946-1.439-.954-.96-1.432-2.249-1.432-3.864 0-1.586.444-2.907 1.334-3.961.932-1.125 2.191-1.688 3.775-1.688 1.558 0 2.735.563 3.535 1.688.634.891.952 1.997.952 3.31Zm-2.287-.606c.017-.694-.141-1.292-.466-1.797-.416-.652-1.055-.976-1.911-.976-.785 0-1.423.317-1.91.953-.399.505-.636 1.113-.709 1.818l4.996.002ZM50.451 18.36c-.667 0-1.245-.031-1.725-.085V11.22a13.403 13.403 0 0 1 2.031-.149c2.752 0 4.019 1.32 4.019 3.47 0 2.48-1.497 3.82-4.325 3.82Zm.403-6.385c-.371 0-.688.022-.95.074v5.364c.142.022.414.032.797.032 1.803 0 2.829-1 2.829-2.873 0-1.67-.928-2.597-2.676-2.597Zm7.87 6.44c-1.55 0-2.555-1.13-2.555-2.661 0-1.597 1.026-2.735 2.643-2.735 1.528 0 2.556 1.075 2.556 2.65 0 1.617-1.06 2.745-2.644 2.745Zm.045-4.556c-.852 0-1.397.776-1.397 1.862 0 1.065.557 1.841 1.386 1.841.83 0 1.386-.83 1.386-1.863 0-1.053-.545-1.84-1.375-1.84Zm11.441-.734-1.66 5.172h-1.08l-.689-2.246c-.17-.55-.313-1.107-.426-1.67h-.023c-.086.563-.25 1.128-.425 1.67l-.731 2.246h-1.093l-1.562-5.172h1.212l.601 2.459c.142.585.261 1.138.36 1.66h.023c.086-.435.228-.98.436-1.65l.754-2.468h.961l.722 2.416c.174.586.316 1.16.426 1.703h.032c.076-.532.196-1.096.36-1.703l.644-2.416h1.158Zm6.11 5.172h-1.178v-2.97c0-.914-.36-1.373-1.07-1.373-.7 0-1.18.586-1.18 1.267v3.076h-1.18v-3.694c0-.457-.01-.947-.043-1.479h1.037l.055.798h.033c.317-.552.961-.903 1.682-.903 1.115 0 1.846.83 1.846 2.181l-.001 3.097Zm3.253 0h-1.18v-7.545h1.18v7.545Zm4.3.117c-1.55 0-2.556-1.128-2.556-2.66 0-1.597 1.026-2.735 2.642-2.735 1.53 0 2.556 1.075 2.556 2.65.001 1.617-1.059 2.745-2.642 2.745Zm.043-4.555c-.851 0-1.397.776-1.397 1.862 0 1.065.558 1.841 1.385 1.841.83 0 1.387-.83 1.387-1.863 0-1.053-.544-1.84-1.374-1.84Zm7.249 4.438-.086-.596h-.031c-.36.48-.886.713-1.552.713-.951 0-1.626-.649-1.626-1.522 0-1.276 1.135-1.936 3.101-1.936v-.096c0-.681-.37-1.022-1.102-1.022-.523 0-.982.128-1.386.384l-.24-.756c.49-.298 1.103-.447 1.822-.447 1.387 0 2.087.713 2.087 2.14v1.904c0 .522.023.927.076 1.235l-1.063-.001Zm-.162-2.576c-1.31 0-1.967.31-1.967 1.043 0 .543.338.808.809.808.6 0 1.158-.446 1.158-1.053v-.798Zm6.875 2.576-.055-.83h-.033c-.338.627-.908.947-1.703.947-1.28 0-2.227-1.096-2.227-2.64 0-1.617.982-2.756 2.323-2.756.71 0 1.214.233 1.497.703h.024v-2.969h1.18v6.151c0 .5.013.969.044 1.394h-1.05Zm-.174-3.043c0-.724-.492-1.341-1.243-1.341-.874 0-1.408.755-1.408 1.819 0 1.043.554 1.757 1.385 1.757.741 0 1.266-.629 1.266-1.373v-.862Zm8.665 3.16c-1.55 0-2.555-1.128-2.555-2.66 0-1.597 1.026-2.735 2.642-2.735 1.53 0 2.556 1.075 2.556 2.65.001 1.617-1.058 2.745-2.643 2.745Zm.044-4.555c-.851 0-1.397.776-1.397 1.862 0 1.065.557 1.841 1.385 1.841.831 0 1.387-.83 1.387-1.863.002-1.053-.544-1.84-1.375-1.84Zm8.941 4.438h-1.18v-2.97c0-.914-.36-1.373-1.071-1.373-.698 0-1.177.586-1.177 1.267v3.076h-1.181v-3.694c0-.457-.011-.947-.044-1.479h1.038l.055.798h.033c.315-.552.961-.904 1.68-.904 1.114 0 1.847.83 1.847 2.181v3.098Zm7.935-4.31h-1.298v2.511c0 .64.227.959.687.959.207 0 .383-.022.523-.054l.033.873c-.229.086-.535.128-.915.128-.93 0-1.486-.5-1.486-1.809v-2.608h-.774v-.862h.774v-.947l1.158-.342v1.288h1.298v.863Zm6.242 4.31h-1.177v-2.948c0-.925-.359-1.394-1.071-1.394-.61 0-1.18.405-1.18 1.224v3.118h-1.178v-7.545h1.178v3.107h.023c.372-.564.91-.841 1.597-.841 1.123 0 1.808.85 1.808 2.203v3.076Zm6.397-2.31h-3.539c.023.98.688 1.532 1.673 1.532.522 0 1.004-.085 1.43-.244l.182.798c-.501.213-1.092.32-1.779.32-1.661 0-2.642-1.023-2.642-2.607 0-1.586 1.005-2.778 2.509-2.778 1.356 0 2.206.98 2.206 2.459a2.12 2.12 0 0 1-.04.52Zm-1.082-.819c0-.798-.412-1.362-1.166-1.362-.677 0-1.214.575-1.29 1.362h2.456Z" fill="#fff"/></svg>