<svg width="152" height="52" fill="none" xmlns="http://www.w3.org/2000/svg"><path d="M144 0H8a8 8 0 0 0-8 8v36a8 8 0 0 0 8 8h136a8 8 0 0 0 8-8V8a8 8 0 0 0-8-8Z" fill="#222"/><path d="M53.046 15.839c0 .885-.22 1.659-.772 2.212-.662.664-1.434.995-2.426.995-.993 0-1.765-.331-2.427-.995-.661-.664-.992-1.438-.992-2.434 0-.995.33-1.77.992-2.433.662-.664 1.434-.995 2.427-.995.44 0 .882.11 1.323.331.441.222.772.443.993.775l-.552.553c-.44-.553-.992-.775-1.764-.775-.662 0-1.324.222-1.765.775-.551.442-.772 1.106-.772 1.88 0 .774.22 1.438.772 1.88.552.443 1.103.775 1.765.775.772 0 1.323-.221 1.874-.775.331-.331.552-.774.552-1.327h-2.426v-.885h3.198v.443Zm5.073-2.766h-2.977v2.102h2.757v.774h-2.757v2.102h2.977v.885h-3.86v-6.637h3.86v.774Zm3.64 5.863h-.882v-5.863h-1.875V12.3h4.632v.774h-1.875v5.863Zm5.073 0v-6.637h.883v6.637h-.883Zm4.632 0h-.882v-5.863h-1.875V12.3h4.522v.774h-1.875v5.863h.11Zm10.478-.885c-.662.664-1.434.995-2.427.995-.992 0-1.764-.331-2.426-.995-.662-.664-.992-1.438-.992-2.434 0-.995.33-1.77.992-2.433.662-.664 1.434-.995 2.426-.995.993 0 1.765.331 2.427.995.662.664.992 1.438.992 2.433 0 .996-.33 1.77-.992 2.434Zm-4.191-.553c.441.442 1.103.774 1.764.774.662 0 1.324-.221 1.765-.774a2.672 2.672 0 0 0 .772-1.88c0-.775-.22-1.438-.772-1.881-.441-.442-1.103-.774-1.765-.774-.661 0-1.323.221-1.764.774a2.673 2.673 0 0 0-.772 1.88c0 .775.22 1.438.772 1.88Zm6.397 1.438v-6.637h.992l3.199 5.199v-5.199h.882v6.637h-.882l-3.42-5.42v5.42h-.771ZM75.873 28.672c-2.647 0-4.743 1.991-4.743 4.756 0 2.655 2.096 4.757 4.743 4.757 2.647 0 4.742-1.991 4.742-4.757 0-2.876-2.095-4.756-4.742-4.756Zm0 7.522c-1.434 0-2.647-1.217-2.647-2.876 0-1.66 1.213-2.876 2.647-2.876 1.434 0 2.647 1.106 2.647 2.876 0 1.66-1.213 2.876-2.647 2.876Zm-10.257-7.522c-2.647 0-4.742 1.991-4.742 4.756 0 2.655 2.095 4.757 4.742 4.757s4.742-1.991 4.742-4.757c0-2.876-2.095-4.756-4.742-4.756Zm0 7.522c-1.434 0-2.647-1.217-2.647-2.876 0-1.66 1.213-2.876 2.647-2.876 1.434 0 2.647 1.106 2.647 2.876 0 1.66-1.213 2.876-2.647 2.876ZM53.374 30.11V32.1h4.742c-.11 1.106-.551 1.991-1.103 2.544-.661.664-1.764 1.438-3.64 1.438-2.977 0-5.183-2.323-5.183-5.31 0-2.986 2.316-5.31 5.184-5.31 1.544 0 2.757.665 3.64 1.439l1.433-1.438c-1.213-1.106-2.757-1.991-4.963-1.991-3.97 0-7.39 3.318-7.39 7.3 0 3.983 3.42 7.302 7.39 7.302 2.206 0 3.75-.664 5.073-2.102 1.324-1.328 1.765-3.208 1.765-4.646 0-.443 0-.885-.11-1.217h-6.838Zm50.071 1.549c-.441-1.107-1.544-2.987-3.97-2.987-2.427 0-4.412 1.88-4.412 4.756 0 2.655 1.985 4.757 4.632 4.757 2.096 0 3.419-1.327 3.86-2.102l-1.544-1.106c-.551.774-1.213 1.328-2.316 1.328-1.103 0-1.764-.443-2.316-1.438l6.287-2.655-.221-.554Zm-6.397 1.548c0-1.77 1.434-2.765 2.427-2.765.772 0 1.544.442 1.764.995l-4.19 1.77Zm-5.183 4.536h2.095V23.915h-2.095v13.828Zm-3.309-8.076c-.551-.553-1.434-1.106-2.537-1.106-2.316 0-4.521 2.102-4.521 4.757s2.095 4.646 4.521 4.646c1.103 0 1.986-.553 2.427-1.106h.11v.663c0 1.77-.993 2.766-2.537 2.766-1.213 0-2.095-.885-2.316-1.66l-1.764.775c.551 1.217 1.875 2.765 4.19 2.765 2.427 0 4.412-1.438 4.412-4.867v-8.407h-1.985v.774Zm-2.426 6.527c-1.434 0-2.647-1.217-2.647-2.876 0-1.66 1.213-2.876 2.647-2.876 1.433 0 2.536 1.216 2.536 2.876s-1.103 2.876-2.536 2.876Zm26.91-12.279h-4.963v13.828h2.096v-5.2h2.867c2.316 0 4.522-1.659 4.522-4.314 0-2.655-2.206-4.314-4.522-4.314Zm.11 6.637h-2.977v-4.756h2.977c1.544 0 2.427 1.327 2.427 2.323-.11 1.216-.993 2.433-2.427 2.433Zm12.683-1.99c-1.544 0-3.087.663-3.639 2.101l1.875.774c.441-.774 1.103-.995 1.875-.995 1.103 0 2.095.663 2.206 1.77v.11c-.33-.221-1.213-.553-2.096-.553-1.985 0-3.971 1.106-3.971 3.098 0 1.88 1.656 3.097 3.42 3.097 1.434 0 2.096-.664 2.647-1.328h.11v1.107h1.985v-5.31c-.221-2.434-2.095-3.872-4.412-3.872Zm-.219 7.632c-.662 0-1.656-.332-1.656-1.217 0-1.106 1.214-1.438 2.206-1.438.883 0 1.324.221 1.875.443-.219 1.327-1.323 2.212-2.425 2.212Zm11.58-7.301-2.316 5.974h-.111l-2.426-5.974h-2.206l3.639 8.407-2.095 4.646h2.095l5.625-13.053h-2.205Zm-18.529 8.85h2.095V23.915h-2.095v13.828Z" fill="#fff"/><path d="M12.235 12.852c-.33.332-.441.885-.441 1.549v24.446c0 .664.22 1.217.551 1.549l.11.11L26.132 26.79v-.221L12.235 12.852Z" fill="url('#paint0_linear_1_10583')"/><path d="m30.541 31.436-4.521-4.535v-.332l4.521-4.535.11.11 5.405 3.098c1.544.885 1.544 2.323 0 3.208l-5.515 2.986Z" fill="url('#paint1_linear_1_10583')"/><path d="m30.655 31.325-4.633-4.646-13.786 13.828c.552.553 1.324.553 2.316.11l16.103-9.292Z" fill="url('#paint2_linear_1_10583')"/><path d="m30.655 22.035-16.103-9.181c-.992-.553-1.764-.443-2.316.11l13.787 13.717 4.632-4.646Z" fill="url('#paint3_linear_1_10583')"/><path opacity=".2" d="m30.544 31.216-15.992 9.072c-.882.553-1.654.442-2.205 0l-.11.11.11.11c.551.443 1.323.554 2.205 0l15.992-9.292Z" fill="#222"/><path opacity=".2" d="M12.235 40.285c-.33-.331-.441-.884-.441-1.548v.11c0 .664.22 1.217.551 1.55v-.111h-.11Zm23.823-12.168-5.515 3.098.11.11 5.405-3.097c.772-.443 1.102-.996 1.102-1.549 0 .553-.44.996-1.102 1.438Z" fill="#222"/><path opacity=".2" d="m14.551 12.964 21.507 12.278c.661.443 1.102.885 1.102 1.438 0-.553-.33-1.106-1.102-1.548L14.55 12.853c-1.544-.885-2.757-.221-2.757 1.549v.11c0-1.659 1.213-2.433 2.757-1.548Z" fill="#fff"/><defs><linearGradient id="paint0_linear_1_10583" x1="24.808" y1="14.191" x2="6.243" y2="32.699" gradientUnits="userSpaceOnUse"><stop stop-color="#00A0FF"/><stop offset=".007" stop-color="#00A1FF"/><stop offset=".26" stop-color="#00BEFF"/><stop offset=".512" stop-color="#00D2FF"/><stop offset=".76" stop-color="#00DFFF"/><stop offset="1" stop-color="#00E3FF"/></linearGradient><linearGradient id="paint1_linear_1_10583" x1="38.078" y1="26.681" x2="11.392" y2="26.681" gradientUnits="userSpaceOnUse"><stop stop-color="#FFE000"/><stop offset=".409" stop-color="#FFBD00"/><stop offset=".775" stop-color="orange"/><stop offset="1" stop-color="#FF9C00"/></linearGradient><linearGradient id="paint2_linear_1_10583" x1="28.148" y1="29.219" x2="2.973" y2="54.319" gradientUnits="userSpaceOnUse"><stop stop-color="#FF3A44"/><stop offset="1" stop-color="#C31162"/></linearGradient><linearGradient id="paint3_linear_1_10583" x1="8.814" y1="4.752" x2="20.056" y2="15.961" gradientUnits="userSpaceOnUse"><stop stop-color="#32A071"/><stop offset=".069" stop-color="#2DA771"/><stop offset=".476" stop-color="#15CF74"/><stop offset=".801" stop-color="#06E775"/><stop offset="1" stop-color="#00F076"/></linearGradient></defs></svg>