<svg width="152" height="52" viewBox="0 0 152 52" fill="none" xmlns="http://www.w3.org/2000/svg">
<path d="M144 0H8C3.58172 0 0 3.58172 0 8V44C0 48.4183 3.58172 52 8 52H144C148.418 52 152 48.4183 152 44V8C152 3.58172 148.418 0 144 0Z" fill="#222222"/>
<path d="M33.4791 25.2619C33.4464 21.7273 36.4488 20.0077 36.5861 19.9277C34.8857 17.5117 32.2502 17.1817 31.3242 17.1554C29.1107 16.9283 26.9636 18.4462 25.8361 18.4462C24.6859 18.4462 22.9496 17.1774 21.0782 17.2145C18.67 17.2508 16.4173 18.6095 15.1817 20.7194C12.6317 25.0217 14.5334 31.3439 16.9765 34.8214C18.1986 36.5255 19.6266 38.426 21.4957 38.3591C23.3243 38.2867 24.0074 37.2241 26.2141 37.2241C28.4006 37.2241 29.042 38.3591 30.9483 38.3164C32.9108 38.2867 34.1464 36.6056 35.3257 34.8872C36.738 32.9362 37.3051 31.0126 37.3276 30.9139C37.2826 30.8986 33.5174 29.4971 33.4791 25.2619ZM29.8781 14.8678C30.8617 13.6691 31.5345 12.0384 31.3478 10.3835C29.9243 10.445 28.144 11.3431 27.1189 12.5154C26.2118 13.5485 25.4016 15.2417 25.6109 16.8341C27.21 16.9503 28.8518 16.0477 29.8781 14.8678Z" fill="white"/>
<path d="M59.9641 38.1121H57.4085L56.0087 33.8253H51.1428L49.8093 38.1121H47.3213L52.1432 23.5178H55.1208L59.9641 38.1121ZM55.5867 32.0268L54.3207 28.2159C54.1868 27.8266 53.9347 26.9098 53.5656 25.4666H53.5205C53.372 26.0873 53.1346 27.004 52.8094 28.2159L51.5648 32.0268H55.5867ZM72.3402 32.7209C72.3402 34.5107 71.8416 35.9253 70.8435 36.9638C69.9501 37.8884 68.8393 38.3501 67.5149 38.3501C66.0847 38.3501 65.0561 37.8533 64.4315 36.8575V42.3792H62.0324V31.0474C62.0324 29.9234 62.002 28.7708 61.9435 27.5886H64.0535L64.1873 29.2567H64.2324C65.0324 27.9998 66.2467 27.3715 67.8761 27.3715C69.1499 27.3715 70.2133 27.8617 71.0641 28.8432C71.9137 29.8269 72.3402 31.1188 72.3402 32.7209ZM69.896 32.8065C69.896 31.7822 69.6597 30.9378 69.1848 30.2721C68.6661 29.5802 67.9695 29.2336 67.0963 29.2336C66.5044 29.2336 65.9665 29.4266 65.4859 29.8071C65.0044 30.191 64.6892 30.6922 64.5419 31.3129C64.476 31.5449 64.4386 31.7838 64.4304 32.0246V33.7803C64.4304 34.5446 64.6712 35.1906 65.1529 35.7192C65.6344 36.2456 66.2602 36.5098 67.0299 36.5098C67.9335 36.5098 68.6368 36.1688 69.1398 35.4922C69.6439 34.8133 69.896 33.9185 69.896 32.8065ZM84.7602 32.7209C84.7602 34.5107 84.2617 35.9253 83.2635 36.9638C82.3689 37.8884 81.2593 38.3501 79.9338 38.3501C78.5035 38.3501 77.4749 37.8533 76.8504 36.8575V42.3792H74.4512V31.0474C74.4512 29.9234 74.4209 28.7708 74.3623 27.5886H76.4723L76.6063 29.2567H76.6512C77.4502 27.9998 78.6644 27.3715 80.2949 27.3715C81.5676 27.3715 82.6311 27.8617 83.4841 28.8432C84.3325 29.8269 84.7602 31.1188 84.7602 32.7209ZM82.3149 32.8065C82.3149 31.7822 82.0775 30.9378 81.6026 30.2721C81.0838 29.5802 80.3895 29.2336 79.5162 29.2336C78.9243 29.2336 78.3864 29.4266 77.9037 29.8071C77.422 30.191 77.108 30.6922 76.9607 31.3129C76.8876 31.6024 76.8482 31.8381 76.8482 32.0246V33.7803C76.8482 34.5446 77.0901 35.1906 77.5695 35.7192C78.0511 36.2445 78.6767 36.5098 79.4487 36.5098C80.3535 36.5098 81.0568 36.1688 81.5587 35.4922C82.0628 34.8133 82.3149 33.9185 82.3149 32.8065ZM98.6464 34.0183C98.6464 35.2608 98.2008 36.2708 97.3152 37.0505C96.3407 37.9015 94.9801 38.3281 93.2359 38.3281C91.6246 38.3281 90.3327 38.0254 89.3582 37.419L89.913 35.4702C90.9651 36.0778 92.1208 36.3804 93.3789 36.3804C94.2837 36.3804 94.9869 36.1809 95.4888 35.785C95.9919 35.388 96.2462 34.8573 96.2462 34.1948C96.2462 33.6015 96.0357 33.1048 95.6227 32.7001C95.2075 32.2966 94.521 31.9204 93.5566 31.575C90.9347 30.6219 89.6226 29.2281 89.6226 27.3945C89.6226 26.1969 90.0862 25.2165 91.0112 24.45C91.9362 23.6845 93.1628 23.3018 94.6887 23.3018C96.0515 23.3018 97.1869 23.5332 98.0883 23.9949L97.4862 25.9008C96.6377 25.4535 95.6801 25.2297 94.6088 25.2297C93.7626 25.2297 93.0987 25.4326 92.6238 25.8361C92.2243 26.1969 92.0218 26.6367 92.0218 27.1587C92.0218 27.7345 92.2525 28.2126 92.7116 28.5877C93.1099 28.9331 93.8368 29.3093 94.8879 29.7128C96.1775 30.2195 97.1251 30.8095 97.7315 31.4872C98.3426 32.1649 98.6464 33.0105 98.6464 34.0183ZM106.599 29.3432H103.954V34.4525C103.954 35.7521 104.42 36.4002 105.354 36.4002C105.783 36.4002 106.139 36.3651 106.42 36.2916L106.486 38.0672C106.014 38.2393 105.392 38.326 104.621 38.326C103.673 38.326 102.933 38.0441 102.398 37.4804C101.866 36.9168 101.598 35.9725 101.598 34.6434V29.3389H100.023V27.5842H101.598V25.6574L103.954 24.9643V27.5842H106.599V29.3432ZM118.507 32.7637C118.507 34.3813 118.032 35.7093 117.084 36.7479C116.093 37.817 114.774 38.3501 113.131 38.3501C111.544 38.3501 110.282 37.8379 109.341 36.8148C108.401 35.7894 107.93 34.4975 107.93 32.9391C107.93 31.3084 108.416 29.9727 109.385 28.9342C110.356 27.8945 111.664 27.3747 113.308 27.3747C114.893 27.3747 116.165 27.888 117.129 28.9123C118.048 29.9059 118.507 31.1889 118.507 32.7637ZM116.02 32.8175C116.02 31.8534 115.807 31.0266 115.378 30.3346C114.874 29.4989 114.155 29.0811 113.221 29.0811C112.26 29.0811 111.523 29.4989 111.022 30.3346C110.592 31.0266 110.378 31.8677 110.378 32.8613C110.378 33.8264 110.592 34.6554 111.022 35.3452C111.54 36.1809 112.263 36.5987 113.201 36.5987C114.118 36.5987 114.837 36.1721 115.357 35.3244C115.798 34.616 116.02 33.7836 116.02 32.8175ZM126.308 29.6449C126.059 29.6009 125.806 29.5793 125.553 29.5802C124.708 29.5802 124.056 29.8894 123.596 30.5123C123.198 31.0606 122.998 31.7537 122.998 32.5904V38.1121H120.599V30.9027C120.601 29.798 120.578 28.6934 120.53 27.5897H122.619L122.706 29.6031H122.772C123.027 28.9112 123.425 28.353 123.973 27.9351C124.473 27.57 125.082 27.3723 125.706 27.3715C125.928 27.3715 126.129 27.3868 126.306 27.4142L126.308 29.6449ZM137.038 32.3525C137.045 32.7078 137.015 33.063 136.951 33.4129H129.754C129.781 34.4525 130.129 35.2487 130.797 35.797C131.404 36.2862 132.188 36.5318 133.152 36.5318C134.217 36.5318 135.189 36.3673 136.064 36.0351L136.44 37.657C135.418 38.0913 134.212 38.3073 132.82 38.3073C131.145 38.3073 129.831 37.8269 128.874 36.8685C127.92 35.9089 127.442 34.6192 127.442 33.0038C127.442 31.4181 127.886 30.0967 128.776 29.0428C129.708 27.9176 130.967 27.3551 132.551 27.3551C134.109 27.3551 135.286 27.9176 136.086 29.0428C136.72 29.9343 137.038 31.0397 137.038 32.3525ZM134.751 31.746C134.768 31.0518 134.61 30.4541 134.285 29.9486C133.869 29.2972 133.23 28.9726 132.374 28.9726C131.589 28.9726 130.951 29.2895 130.464 29.9255C130.065 30.4311 129.828 31.0386 129.755 31.7438L134.751 31.746Z" fill="white"/>
<path d="M50.4511 18.3606C49.7838 18.3606 49.2065 18.3288 48.7261 18.2751V11.2191C49.3982 11.118 50.0772 11.0681 50.7573 11.07C53.5086 11.07 54.7757 12.3893 54.7757 14.5398C54.7757 17.0205 53.279 18.3606 50.4511 18.3606ZM50.854 11.9747C50.4827 11.9747 50.1665 11.9967 49.9043 12.0493V17.4131C50.0461 17.4351 50.3184 17.4448 50.701 17.4448C52.5037 17.4448 53.53 16.4447 53.53 14.5716C53.53 12.9014 52.6016 11.9747 50.854 11.9747ZM58.7243 18.4143C57.1737 18.4143 56.1688 17.2859 56.1688 15.7539C56.1688 14.1571 57.1952 13.0187 58.8122 13.0187C60.3404 13.0187 61.3678 14.0935 61.3678 15.6694C61.3678 17.2859 60.3088 18.4143 58.7243 18.4143ZM58.7694 13.8588C57.9175 13.8588 57.3718 14.6352 57.3718 15.7209C57.3718 16.7857 57.9288 17.5622 58.7582 17.5622C59.5875 17.5622 60.1445 16.732 60.1445 15.699C60.1445 14.6462 59.5987 13.8588 58.7694 13.8588ZM70.2103 13.1251L68.5506 18.297H67.4692L66.7815 16.0511C66.6106 15.5017 66.4682 14.9442 66.355 14.3809H66.3325C66.2459 14.9445 66.0817 15.5093 65.9072 16.0511L65.1757 18.297H64.0831L62.5212 13.1251H63.7332L64.3341 15.5839C64.4758 16.1695 64.5952 16.7222 64.6942 17.2442H64.7166C64.8033 16.8088 64.945 16.2649 65.1533 15.5948L65.9072 13.1263H66.8683L67.5895 15.5421C67.764 16.1278 67.9058 16.7025 68.016 17.2453H68.0476C68.1241 16.7134 68.2444 16.1486 68.4077 15.5421L69.0525 13.1263L70.2103 13.1251ZM76.3208 18.297H75.1415V15.3273C75.1415 14.4126 74.7814 13.9543 74.0713 13.9543C73.3724 13.9543 72.892 14.5398 72.892 15.2208V18.297H71.7126V14.6035C71.7126 14.1461 71.7014 13.6559 71.6688 13.124H72.7063L72.7615 13.9224H72.794C73.1114 13.3696 73.755 13.0187 74.4764 13.0187C75.5905 13.0187 76.3219 13.8489 76.3219 15.2L76.3208 18.297ZM79.5729 18.297H78.3924V10.752H79.5729V18.297ZM83.8727 18.4143C82.3231 18.4143 81.3171 17.2859 81.3171 15.7539C81.3171 14.1571 82.3434 13.0187 83.9593 13.0187C85.4886 13.0187 86.5149 14.0935 86.5149 15.6694C86.516 17.2859 85.456 18.4143 83.8727 18.4143ZM83.9165 13.8588C83.0647 13.8588 82.5189 14.6352 82.5189 15.7209C82.5189 16.7857 83.0771 17.5622 83.9041 17.5622C84.7347 17.5622 85.2906 16.732 85.2906 15.699C85.2916 14.6462 84.7471 13.8588 83.9165 13.8588ZM91.1646 18.297L91.0791 17.7015H91.0476C90.6875 18.1807 90.162 18.4143 89.4958 18.4143C88.5449 18.4143 87.8698 17.7651 87.8698 16.8922C87.8698 15.6157 89.0051 14.9555 90.9711 14.9555V14.8601C90.9711 14.179 90.6008 13.838 89.8694 13.838C89.3462 13.838 88.8871 13.9662 88.483 14.2218L88.2434 13.4662C88.7339 13.1679 89.3462 13.0187 90.0652 13.0187C91.4516 13.0187 92.1515 13.7316 92.1515 15.1584V17.0633C92.1515 17.5852 92.1752 17.99 92.228 18.2981L91.1646 18.297ZM91.0026 15.7209C89.6928 15.7209 89.0356 16.0302 89.0356 16.7639C89.0356 17.3067 89.3743 17.5721 89.8447 17.5721C90.4444 17.5721 91.0026 17.1258 91.0026 16.5193V15.7209ZM97.8782 18.297L97.8231 17.4668H97.7904C97.4517 18.0942 96.8823 18.4143 96.0867 18.4143C94.8073 18.4143 93.8597 17.3177 93.8597 15.7746C93.8597 14.1571 94.8421 13.0176 96.1835 13.0176C96.8935 13.0176 97.3966 13.2512 97.6801 13.7206H97.7038V10.752H98.8842V16.9032C98.8842 17.4032 98.8966 17.8715 98.9281 18.297H97.8782ZM97.7038 15.2538C97.7038 14.53 97.2121 13.9125 96.4614 13.9125C95.5871 13.9125 95.0526 14.6682 95.0526 15.7319C95.0526 16.7749 95.6073 17.4888 96.4378 17.4888C97.1794 17.4888 97.7038 16.8603 97.7038 16.1158V15.2538ZM106.369 18.4143C104.819 18.4143 103.814 17.2859 103.814 15.7539C103.814 14.1571 104.84 13.0187 106.456 13.0187C107.986 13.0187 109.012 14.0935 109.012 15.6694C109.013 17.2859 107.954 18.4143 106.369 18.4143ZM106.413 13.8588C105.562 13.8588 105.016 14.6352 105.016 15.7209C105.016 16.7857 105.573 17.5622 106.401 17.5622C107.232 17.5622 107.788 16.732 107.788 15.699C107.79 14.6462 107.244 13.8588 106.413 13.8588ZM115.354 18.297H114.174V15.3273C114.174 14.4126 113.814 13.9543 113.103 13.9543C112.405 13.9543 111.926 14.5398 111.926 15.2208V18.297H110.745V14.6035C110.745 14.1461 110.734 13.6559 110.701 13.124H111.739L111.794 13.9224H111.827C112.142 13.3696 112.788 13.0176 113.507 13.0176C114.621 13.0176 115.354 13.8478 115.354 15.199V18.297ZM123.289 13.9871H121.991V16.4984C121.991 17.1379 122.218 17.4569 122.678 17.4569C122.885 17.4569 123.061 17.4351 123.201 17.4032L123.234 18.2762C123.005 18.3617 122.699 18.4045 122.319 18.4045C121.389 18.4045 120.833 17.9044 120.833 16.595V13.9871H120.059V13.1251H120.833V12.1776L121.991 11.8365V13.124H123.289V13.9871ZM129.531 18.297H128.354V15.3491C128.354 14.4236 127.995 13.9553 127.283 13.9553C126.673 13.9553 126.103 14.36 126.103 15.1792V18.297H124.925V10.752H126.103V13.8588H126.126C126.498 13.2952 127.036 13.0176 127.723 13.0176C128.846 13.0176 129.531 13.8687 129.531 15.2208V18.297ZM135.928 15.9875H132.389C132.412 16.9667 133.077 17.5194 134.062 17.5194C134.584 17.5194 135.066 17.434 135.492 17.2749L135.674 18.0733C135.173 18.286 134.582 18.3924 133.895 18.3924C132.234 18.3924 131.253 17.3704 131.253 15.7856C131.253 14.1999 132.258 13.0077 133.762 13.0077C135.118 13.0077 135.968 13.9871 135.968 15.4665C135.976 15.6411 135.963 15.816 135.928 15.9875ZM134.846 15.1682C134.846 14.3699 134.434 13.8061 133.68 13.8061C133.003 13.8061 132.466 14.3809 132.39 15.1682H134.846Z" fill="white"/>
</svg>
