<svg width="152" height="52" viewBox="0 0 152 52" fill="none" xmlns="http://www.w3.org/2000/svg">
<path d="M144 0H8C3.58172 0 0 3.58172 0 8V44C0 48.4183 3.58172 52 8 52H144C148.418 52 152 48.4183 152 44V8C152 3.58172 148.418 0 144 0Z" fill="#222222"/>
<path d="M53.0461 15.8387C53.0461 16.7236 52.8255 17.4978 52.2741 18.0509C51.6123 18.7146 50.8402 19.0464 49.8476 19.0464C48.855 19.0464 48.083 18.7146 47.4213 18.0509C46.7595 17.3873 46.4287 16.6129 46.4287 15.6174C46.4287 14.6219 46.7595 13.8476 47.4213 13.184C48.083 12.5203 48.855 12.1885 49.8476 12.1885C50.2888 12.1885 50.73 12.2991 51.1711 12.5203C51.6123 12.7415 51.9431 12.9628 52.1637 13.2946L51.6123 13.8476C51.1711 13.2946 50.6196 13.0734 49.8476 13.0734C49.1859 13.0734 48.5242 13.2946 48.083 13.8476C47.5315 14.2901 47.3109 14.9538 47.3109 15.728C47.3109 16.5023 47.5315 17.166 48.083 17.6084C48.6345 18.0509 49.1859 18.3828 49.8476 18.3828C50.6196 18.3828 51.1711 18.1616 51.7225 17.6084C52.0535 17.2767 52.2741 16.8342 52.2741 16.2812H49.8476V15.3963H53.0461V15.8387ZM58.1193 13.0734H55.1416V15.175H57.8987V15.9493H55.1416V18.0509H58.1193V18.9358H54.2592V12.2991H58.1193V13.0734ZM61.7589 18.9358H60.8766V13.0734H59.0016V12.2991H63.6338V13.0734H61.7589V18.9358ZM66.8321 18.9358V12.2991H67.7145V18.9358H66.8321ZM71.4643 18.9358H70.582V13.0734H68.7071V12.2991H73.2289V13.0734H71.3541V18.9358H71.4643ZM81.9417 18.0509C81.2801 18.7146 80.508 19.0464 79.5154 19.0464C78.5228 19.0464 77.7508 18.7146 77.0891 18.0509C76.4273 17.3873 76.0965 16.6129 76.0965 15.6174C76.0965 14.6219 76.4273 13.8476 77.0891 13.184C77.7508 12.5203 78.5228 12.1885 79.5154 12.1885C80.508 12.1885 81.2801 12.5203 81.9417 13.184C82.6035 13.8476 82.9344 14.6219 82.9344 15.6174C82.9344 16.6129 82.6035 17.3873 81.9417 18.0509ZM77.7508 17.4978C78.192 17.9403 78.8537 18.2722 79.5154 18.2722C80.1772 18.2722 80.8389 18.0509 81.2801 17.4978C81.7213 17.0554 82.0521 16.3918 82.0521 15.6174C82.0521 14.8432 81.8315 14.1795 81.2801 13.737C80.8389 13.2946 80.1772 12.9628 79.5154 12.9628C78.8537 12.9628 78.192 13.184 77.7508 13.737C77.3097 14.1795 76.9787 14.8432 76.9787 15.6174C76.9787 16.3918 77.1993 17.0554 77.7508 17.4978ZM84.1476 18.9358V12.2991H85.1402L88.3386 17.4978V12.2991H89.2208V18.9358H88.3386L84.9196 13.5158V18.9358H84.1476Z" fill="white"/>
<path d="M75.8729 28.6717C73.2258 28.6717 71.1304 30.663 71.1304 33.4284C71.1304 36.0833 73.2258 38.1851 75.8729 38.1851C78.5198 38.1851 80.6153 36.1939 80.6153 33.4284C80.6153 30.5523 78.5198 28.6717 75.8729 28.6717ZM75.8729 36.1939C74.4391 36.1939 73.2258 34.9772 73.2258 33.3178C73.2258 31.6585 74.4391 30.4417 75.8729 30.4417C77.3066 30.4417 78.5198 31.5478 78.5198 33.3178C78.5198 34.9772 77.3066 36.1939 75.8729 36.1939ZM65.6159 28.6717C62.969 28.6717 60.8735 30.663 60.8735 33.4284C60.8735 36.0833 62.969 38.1851 65.6159 38.1851C68.2628 38.1851 70.3583 36.1939 70.3583 33.4284C70.3583 30.5523 68.2628 28.6717 65.6159 28.6717ZM65.6159 36.1939C64.1822 36.1939 62.969 34.9772 62.969 33.3178C62.969 31.6585 64.1822 30.4417 65.6159 30.4417C67.0497 30.4417 68.2628 31.5478 68.2628 33.3178C68.2628 34.9772 67.0497 36.1939 65.6159 36.1939ZM53.3738 30.1098V32.101H58.1162C58.006 33.2072 57.5648 34.0922 57.0134 34.6453C56.3517 35.3089 55.2487 36.0833 53.3738 36.0833C50.3961 36.0833 48.1902 33.7603 48.1902 30.7736C48.1902 27.7868 50.5063 25.4638 53.3738 25.4638C54.9179 25.4638 56.1311 26.1275 57.0134 26.9019L58.4472 25.4638C57.234 24.3575 55.6899 23.4727 53.4842 23.4727C49.5137 23.4727 46.0947 26.7912 46.0947 30.7736C46.0947 34.7559 49.5137 38.0745 53.4842 38.0745C55.6899 38.0745 57.234 37.4108 58.5574 35.9727C59.8809 34.6453 60.3221 32.7647 60.3221 31.3267C60.3221 30.8842 60.3221 30.4417 60.2117 30.1098H53.3738ZM103.445 31.6585C103.004 30.5523 101.901 28.6717 99.4747 28.6717C97.0484 28.6717 95.0631 30.5523 95.0631 33.4284C95.0631 36.0833 97.0484 38.1851 99.6953 38.1851C101.791 38.1851 103.114 36.8577 103.555 36.0833L102.011 34.9772C101.46 35.7514 100.798 36.3045 99.6953 36.3045C98.5924 36.3045 97.9306 35.862 97.3792 34.8665L103.666 32.2116L103.445 31.6585ZM97.0484 33.2072C97.0484 31.4372 98.4821 30.4417 99.4747 30.4417C100.247 30.4417 101.019 30.8842 101.239 31.4372L97.0484 33.2072ZM91.8648 37.7426H93.9603V23.915H91.8648V37.7426ZM88.5561 29.6674C88.0046 29.1142 87.1224 28.5611 86.0194 28.5611C83.7034 28.5611 81.4976 30.663 81.4976 33.3178C81.4976 35.9727 83.5931 37.9639 86.0194 37.9639C87.1224 37.9639 88.0046 37.4108 88.4458 36.8577H88.5561V37.5214C88.5561 39.2914 87.5634 40.2869 86.0194 40.2869C84.8063 40.2869 83.9239 39.4019 83.7033 38.6276L81.9387 39.4019C82.4902 40.6187 83.8136 42.1675 86.1297 42.1675C88.5561 42.1675 90.5413 40.7294 90.5413 37.3002V28.893H88.5561V29.6674ZM86.1297 36.1939C84.6959 36.1939 83.4828 34.9772 83.4828 33.3178C83.4828 31.6585 84.6959 30.4417 86.1297 30.4417C87.5634 30.4417 88.6663 31.6585 88.6663 33.3178C88.6663 34.9772 87.5634 36.1939 86.1297 36.1939ZM113.04 23.915H108.077V37.7426H110.173V32.5435H113.04C115.356 32.5435 117.562 30.8842 117.562 28.2292C117.562 25.5744 115.356 23.915 113.04 23.915ZM113.15 30.5523H110.173V25.7956H113.15C114.694 25.7956 115.577 27.1231 115.577 28.1186C115.467 29.3355 114.584 30.5523 113.15 30.5523ZM125.833 28.5611C124.289 28.5611 122.746 29.2249 122.194 30.663L124.069 31.4372C124.51 30.663 125.172 30.4417 125.944 30.4417C127.047 30.4417 128.039 31.1055 128.15 32.2116V32.3222C127.82 32.101 126.937 31.7691 126.054 31.7691C124.069 31.7691 122.083 32.8753 122.083 34.8665C122.083 36.747 123.739 37.9639 125.503 37.9639C126.937 37.9639 127.599 37.3002 128.15 36.6364H128.26V37.7426H130.245V32.4328C130.024 29.9992 128.15 28.5611 125.833 28.5611ZM125.614 36.1939C124.952 36.1939 123.958 35.862 123.958 34.9772C123.958 33.8709 125.172 33.5391 126.164 33.5391C127.047 33.5391 127.488 33.7603 128.039 33.9816C127.82 35.3089 126.716 36.1939 125.614 36.1939ZM137.194 28.893L134.878 34.8665H134.767L132.341 28.893H130.135L133.774 37.3002L131.679 41.9462H133.774L139.399 28.893H137.194ZM118.665 37.7426H120.76V23.915H118.665V37.7426Z" fill="white"/>
<path d="M12.2351 12.8521C11.9042 13.1839 11.7939 13.737 11.7939 14.4007V38.8473C11.7939 39.5109 12.0145 40.0641 12.3454 40.3959L12.4557 40.5066L26.1315 26.7899V26.5686L12.2351 12.8521Z" fill="url(#paint0_linear_1_10583)"/>
<path d="M30.5414 31.4363L26.0195 26.9009V26.5691L30.5414 22.0337L30.6516 22.1443L36.0558 25.2417C37.5999 26.1266 37.5999 27.5647 36.0558 28.4496L30.5414 31.4363Z" fill="url(#paint1_linear_1_10583)"/>
<path d="M30.6547 31.3252L26.0225 26.6792L12.2363 40.5065C12.7878 41.0596 13.5598 41.0596 14.5524 40.6171L30.6547 31.3252Z" fill="url(#paint2_linear_1_10583)"/>
<path d="M30.6547 22.0348L14.5524 12.8536C13.5598 12.3005 12.7878 12.4111 12.2363 12.9643L26.0225 26.6807L30.6547 22.0348Z" fill="url(#paint3_linear_1_10583)"/>
<path opacity="0.2" d="M30.5443 31.2163L14.5524 40.2875C13.6701 40.8407 12.898 40.73 12.3466 40.2875L12.2363 40.3982L12.3466 40.5088C12.898 40.9513 13.6701 41.0619 14.5524 40.5088L30.5443 31.2163Z" fill="#222222"/>
<path opacity="0.2" d="M12.2351 40.2855C11.9042 39.9537 11.7939 39.4007 11.7939 38.7369V38.8475C11.7939 39.5113 12.0145 40.0643 12.3454 40.3962V40.2855H12.2351ZM36.0576 28.1173L30.5432 31.2146L30.6534 31.3253L36.0576 28.2279C36.8296 27.7854 37.1605 27.2323 37.1605 26.6792C37.1605 27.2323 36.7194 27.6748 36.0576 28.1173Z" fill="#222222"/>
<path opacity="0.2" d="M14.5512 12.9638L36.0576 25.2424C36.7194 25.6849 37.1605 26.1273 37.1605 26.6804C37.1605 26.1273 36.8296 25.5743 36.0576 25.1318L14.5512 12.8532C13.0071 11.9682 11.7939 12.6319 11.7939 14.4019V14.5125C11.7939 12.8532 13.0071 12.0788 14.5512 12.9638Z" fill="white"/>
<defs>
<linearGradient id="paint0_linear_1_10583" x1="24.808" y1="14.1905" x2="6.24312" y2="32.6991" gradientUnits="userSpaceOnUse">
<stop stop-color="#00A0FF"/>
<stop offset="0.007" stop-color="#00A1FF"/>
<stop offset="0.26" stop-color="#00BEFF"/>
<stop offset="0.512" stop-color="#00D2FF"/>
<stop offset="0.76" stop-color="#00DFFF"/>
<stop offset="1" stop-color="#00E3FF"/>
</linearGradient>
<linearGradient id="paint1_linear_1_10583" x1="38.0785" y1="26.6808" x2="11.3918" y2="26.6808" gradientUnits="userSpaceOnUse">
<stop stop-color="#FFE000"/>
<stop offset="0.409" stop-color="#FFBD00"/>
<stop offset="0.775" stop-color="#FFA500"/>
<stop offset="1" stop-color="#FF9C00"/>
</linearGradient>
<linearGradient id="paint2_linear_1_10583" x1="28.1478" y1="29.2189" x2="2.97333" y2="54.3185" gradientUnits="userSpaceOnUse">
<stop stop-color="#FF3A44"/>
<stop offset="1" stop-color="#C31162"/>
</linearGradient>
<linearGradient id="paint3_linear_1_10583" x1="8.81406" y1="4.75205" x2="20.056" y2="15.9607" gradientUnits="userSpaceOnUse">
<stop stop-color="#32A071"/>
<stop offset="0.069" stop-color="#2DA771"/>
<stop offset="0.476" stop-color="#15CF74"/>
<stop offset="0.801" stop-color="#06E775"/>
<stop offset="1" stop-color="#00F076"/>
</linearGradient>
</defs>
</svg>
